<?xml version="1.0" standalone="no"?>
<!DOCTYPE svg PUBLIC "-//W3C//DTD SVG 20010904//EN"
 "http://www.w3.org/TR/2001/REC-SVG-20010904/DTD/svg10.dtd">
<svg version="1.0" xmlns="http://www.w3.org/2000/svg"
 width="256.000000pt" height="256.000000pt" viewBox="0 0 256.000000 256.000000"
 preserveAspectRatio="xMidYMid meet">

<g transform="translate(0.000000,256.000000) scale(0.100000,-0.100000)"
fill="currentColor" stroke="none">
<path d="M1692 2545 c-167 -36 -339 -172 -415 -325 -20 -42 -40 -91 -43 -109
-6 -26 -24 -45 -98 -101 -143 -107 -237 -192 -313 -282 -195 -230 -279 -435
-343 -837 l-21 -134 -170 -191 c-137 -153 -169 -196 -167 -216 4 -37 30 -36
193 5 384 95 691 239 831 387 28 29 54 60 60 69 5 9 36 30 69 48 92 49 178
138 218 226 15 34 30 47 92 78 49 26 92 57 125 94 54 59 69 95 50 118 -20 25
-47 17 -69 -19 -51 -81 -145 -141 -276 -175 -93 -24 -112 -42 -79 -76 11 -11
25 -14 45 -10 16 4 29 3 29 -1 0 -19 -80 -109 -125 -139 -79 -54 -126 -67
-235 -63 l-95 3 0 -30 c0 -25 5 -32 35 -42 19 -7 53 -12 74 -12 l40 -1 -35
-36 c-84 -87 -299 -198 -529 -273 -138 -45 -270 -82 -270 -76 0 2 99 115 220
251 121 136 220 256 220 266 0 15 -27 38 -44 38 -4 0 -29 -24 -56 -52 -59 -63
-59 -62 -25 107 63 310 163 510 353 703 79 81 247 222 263 222 4 0 10 -11 13
-25 5 -18 13 -25 29 -25 33 0 47 19 47 65 0 108 63 248 152 341 206 215 552
219 762 9 110 -111 160 -235 159 -400 -2 -194 -80 -352 -223 -447 -60 -41 -72
-56 -59 -79 13 -25 44 -24 87 3 l35 21 -8 -59 c-31 -249 -150 -484 -319 -626
-76 -64 -207 -134 -311 -168 -81 -26 -100 -40 -91 -68 10 -31 28 -32 103 -10
312 93 546 326 647 646 28 91 56 242 56 309 0 34 8 53 36 90 109 143 153 364
109 551 -76 321 -407 528 -733 457z"/>
<path d="M1527 2296 c-207 -74 -264 -364 -116 -586 89 -133 230 -200 422 -200
149 0 263 44 357 139 161 160 185 415 53 562 -61 67 -127 99 -209 99 -71 0
-113 -13 -170 -51 -36 -24 -44 -26 -54 -14 -6 8 -35 25 -63 40 -58 29 -155 34
-220 11z m149 -67 c28 -7 63 -28 93 -55 27 -24 54 -44 60 -44 6 0 21 12 34 26
29 34 93 71 138 79 123 23 249 -104 249 -251 0 -255 -214 -428 -488 -394 -85
11 -140 31 -198 70 -122 84 -190 267 -150 404 27 93 114 168 204 175 7 1 33
-4 58 -10z"/>
<path d="M1570 2073 c-50 -26 -76 -83 -61 -132 14 -49 50 -81 98 -88 75 -10
133 43 133 122 0 26 -8 44 -32 70 -41 44 -88 54 -138 28z m80 -77 c6 -8 10
-25 8 -38 -6 -42 -78 -32 -78 11 0 37 46 55 70 27z"/>
<path d="M1970 2068 c-39 -27 -66 -84 -56 -123 26 -104 174 -127 222 -33 55
105 -69 222 -166 156z m90 -72 c6 -8 10 -25 8 -38 -6 -42 -78 -32 -78 11 0 37
46 55 70 27z"/>
<path d="M1747 1863 c-13 -13 -7 -37 20 -76 44 -63 58 -65 104 -17 30 31 39
49 37 69 -4 32 -40 41 -67 17 -16 -15 -19 -15 -31 -1 -13 15 -51 20 -63 8z"/>
<path d="M1513 1068 c-6 -7 -16 -31 -23 -53 -83 -262 -379 -536 -805 -745 -88
-44 -185 -89 -215 -100 l-55 -21 49 43 c37 34 47 49 45 68 -6 38 -34 36 -149
-14 -58 -24 -106 -43 -107 -42 -2 1 3 17 9 34 10 27 10 34 -4 48 -9 10 -24 14
-35 10 -22 -7 -103 -152 -103 -185 0 -27 25 -37 59 -24 65 26 66 26 34 -5 -18
-17 -33 -34 -33 -37 0 -16 22 -45 35 -45 22 0 201 63 310 110 489 208 837 476
988 762 52 97 74 173 57 192 -15 19 -44 21 -57 4z"/>
<path d="M1367 603 c-8 -13 -77 -371 -77 -398 0 -46 15 -47 221 -16 l193 30
33 -20 c35 -22 41 -46 21 -78 -9 -15 -9 -23 1 -35 21 -25 55 -19 74 13 32 55
16 111 -45 160 -42 34 -101 37 -256 12 -73 -12 -138 -21 -145 -21 -11 0 -7 33
15 148 34 176 34 206 -4 210 -14 2 -28 -1 -31 -5z"/>
<path d="M1140 425 c-11 -14 -9 -27 27 -149 4 -16 1 -17 -26 -11 -58 13 -131
-45 -131 -105 0 -56 63 -116 95 -90 19 16 19 44 0 60 -19 16 -19 49 -1 56 8 3
42 -2 76 -12 56 -16 63 -16 77 -1 15 15 14 25 -16 129 -19 62 -38 119 -43 126
-14 16 -43 15 -58 -3z"/>
</g>
</svg>
